<?xml version="1.0" encoding="UTF-8" standalone="no"?>
<!-- Created with Inkscape (http://www.inkscape.org/) -->

<svg
   width="128"
   height="128"
   viewBox="0 0 33.866666 33.866666"
   version="1.1"
   id="svg1"
   xml:space="preserve"
   inkscape:version="1.4.3 (0d15f75042, 2025-12-25)"
   sodipodi:docname="gmx-sq.svg"
   xmlns:inkscape="http://www.inkscape.org/namespaces/inkscape"
   xmlns:sodipodi="http://sodipodi.sourceforge.net/DTD/sodipodi-0.dtd"
   xmlns="http://www.w3.org/2000/svg"
   xmlns:svg="http://www.w3.org/2000/svg"><sodipodi:namedview
     id="namedview1"
     pagecolor="#ffffff"
     bordercolor="#999999"
     borderopacity="1"
     inkscape:showpageshadow="2"
     inkscape:pageopacity="0"
     inkscape:pagecheckerboard="0"
     inkscape:deskcolor="#d1d1d1"
     inkscape:document-units="mm"
     inkscape:zoom="0.94252245"
     inkscape:cx="397.33802"
     inkscape:cy="221.21489"
     inkscape:window-width="2560"
     inkscape:window-height="1372"
     inkscape:window-x="0"
     inkscape:window-y="0"
     inkscape:window-maximized="1"
     inkscape:current-layer="layer1" /><defs
     id="defs1" /><g
     inkscape:label="Layer 1"
     inkscape:groupmode="layer"
     id="layer1"><path
       style="fill:#1c449b;fill-opacity:1;stroke-width:0.258183"
       id="path3685"
       d="m 29.317446,16.661663 2.75223,-4.582748 h -2.80903 l -1.463898,2.323647 -1.574915,-2.323647 h -3.07754 l 3.245359,4.577584 -3.245359,5.163659 h 3.07754 l 1.755644,-2.935541 2.080954,2.935541 h 2.747067 z m -10.177572,-4.582748 -2.088699,5.212714 -1.980264,-5.212714 h -2.496628 l -1.657535,9.754152 h 2.522447 l 0.815859,-5.620643 h 0.02582 l 2.235865,5.620643 h 1.009496 l 2.341719,-5.620643 h 0.03099 l 0.710005,5.620643 h 2.535352 L 21.667487,12.078915 Z M 6.2823647,16.393152 v 1.982845 h 2.0654634 c -0.1084372,1.112769 -0.9501134,1.683353 -2.0396458,1.683353 -1.6575341,0 -2.5534289,-1.525861 -2.5534289,-3.03365 0,-1.507788 0.8597494,-3.059467 2.5147017,-3.059467 1.0172408,0 1.7453171,0.614474 2.0938635,1.536188 L 10.754093,14.500672 C 9.9201617,12.693391 8.3762283,11.797496 6.3830557,11.797496 c -3.1214321,0 -5.2514411,2.065463 -5.2514411,5.212713 0,3.049141 2.1171002,5.114605 5.1636589,5.114605 1.6188068,0 3.0465586,-0.578331 3.9915085,-1.900227 0.849422,-1.197969 0.965604,-2.416592 0.991422,-3.831435 z"
       class="cls-1" /></g></svg>
